<?xml version="1.0" encoding="utf-8"?>
<!-- Generator: Adobe Illustrator 27.2.0, SVG Export Plug-In . SVG Version: 6.00 Build 0)  -->
<svg version="1.1"
	 id="svg8" xmlns:dc="http://purl.org/dc/elements/1.1/" xmlns:inkscape="http://www.inkscape.org/namespaces/inkscape" xmlns:sodipodi="http://sodipodi.sourceforge.net/DTD/sodipodi-0.dtd" xmlns:cc="http://creativecommons.org/ns#" xmlns:svg="http://www.w3.org/2000/svg" xmlns:rdf="http://www.w3.org/1999/02/22-rdf-syntax-ns#"
	 xmlns="http://www.w3.org/2000/svg" xmlns:xlink="http://www.w3.org/1999/xlink" x="0px" y="0px" viewBox="0 0 187.5 187.5"
	 style="enable-background:new 0 0 187.5 187.5;" xml:space="preserve">
<style type="text/css">
	.st0{fill:#FFFFFF;}
</style>
<sodipodi:namedview  bordercolor="#666666" borderopacity="1.0" fit-margin-bottom="0" fit-margin-left="0" fit-margin-right="0" fit-margin-top="0" id="base" inkscape:current-layer="layer1" inkscape:cx="142.01984" inkscape:cy="61.975439" inkscape:document-units="px" inkscape:guide-bbox="true" inkscape:pageopacity="0.0" inkscape:pageshadow="2" inkscape:snap-intersection-paths="false" inkscape:snap-object-midpoints="false" inkscape:window-height="1017" inkscape:window-maximized="1" inkscape:window-width="1920" inkscape:window-x="1358" inkscape:window-y="-8" inkscape:zoom="1" pagecolor="#ffffff" showgrid="false" showguides="true">
	</sodipodi:namedview>
<g id="layer1" transform="translate(59.483067,-145.8456)" inkscape:groupmode="layer" inkscape:label="Capa 1">
	<g id="g963">
		<path id="rect826" d="M-18.2,145.8H86.7c22.8,0,41.3,18.5,41.3,41.3v104.9c0,22.8-18.5,41.3-41.3,41.3H-18.2
			c-22.8,0-41.3-18.5-41.3-41.3V187.1C-59.5,164.3-41,145.8-18.2,145.8z"/>
		<path id="path922" inkscape:connector-curvature="0" class="st0" d="M34.3,178.3c-38,0-68.8,25.7-68.8,57.3
			c0,20.1,12.7,38.7,33.4,49.1c-2.7,6.1-6.8,11.8-12,16.8c10.2-1.8,19.8-5.5,28-11c6.3,1.6,12.9,2.4,19.5,2.4
			c38,0,68.8-25.7,68.8-57.3C103.1,204,72.3,178.3,34.3,178.3L34.3,178.3z"/>
	</g>
</g>
</svg>
