<?xml version="1.0" encoding="UTF-8"?><svg id="Layer_2" xmlns="http://www.w3.org/2000/svg" viewBox="0 0 187.5 187.5"><defs><style>.cls-1{stroke-width:0px;}</style></defs><g id="svg8"><path id="layer1" class="cls-1" d="m41.3,0h104.9c22.8,0,41.3,18.5,41.3,41.3v104.9c0,22.8-18.5,41.3-41.3,41.3H41.3c-22.8,0-41.3-18.5-41.3-41.3V41.3C0,18.5,18.5,0,41.3,0Zm52.5,32.5c-38,0-68.8,25.7-68.8,57.3,0,20.1,12.7,38.7,33.4,49.1-2.7,6.1-6.8,11.8-12,16.8,10.2-1.8,19.8-5.5,28-11,6.3,1.6,12.9,2.4,19.5,2.4,38,0,68.8-25.7,68.8-57.3-.1-31.6-30.9-57.3-68.9-57.3h0Z"/></g></svg>